<svg width="364" height="82" viewBox="0 0 364 82" fill="none" xmlns="http://www.w3.org/2000/svg">
<path d="M0.5 0H331.5C349.173 0 363.5 14.3269 363.5 32V82H32.5C14.8269 82 0.5 67.6731 0.5 50V0Z" fill="#6D1600"/>
<path d="M61.796 47.928C61.796 48.84 61.852 49.864 61.964 51C60.876 50.952 59.044 50.928 56.468 50.928C53.396 50.928 51.076 50.952 49.508 51V50.52C50.084 50.488 50.5 50.424 50.756 50.328C51.028 50.232 51.212 50.048 51.308 49.776C51.404 49.504 51.452 49.064 51.452 48.456V36.552C51.452 35.944 51.404 35.504 51.308 35.232C51.212 34.96 51.028 34.776 50.756 34.68C50.5 34.584 50.084 34.52 49.508 34.488V34.008C51.076 34.056 53.396 34.08 56.468 34.08C58.82 34.08 60.492 34.056 61.484 34.008C61.372 35.064 61.316 36.008 61.316 36.84C61.316 37.464 61.34 37.96 61.388 38.328H60.836C60.724 37.288 60.58 36.52 60.404 36.024C60.228 35.512 59.932 35.144 59.516 34.92C59.1 34.68 58.468 34.56 57.62 34.56H55.628C55.052 34.56 54.628 34.608 54.356 34.704C54.1 34.784 53.924 34.96 53.828 35.232C53.732 35.504 53.684 35.944 53.684 36.552V42.216H55.268C55.828 42.216 56.26 42.088 56.564 41.832C56.868 41.56 57.068 41.248 57.164 40.896C57.276 40.528 57.364 40.072 57.428 39.528L57.5 39.048H58.052C58.004 39.72 57.98 40.472 57.98 41.304V42.456C57.98 43.272 58.028 44.408 58.124 45.864H57.572C57.556 45.752 57.508 45.368 57.428 44.712C57.348 44.04 57.124 43.536 56.756 43.2C56.404 42.864 55.908 42.696 55.268 42.696H53.684V48.456C53.684 49.064 53.732 49.504 53.828 49.776C53.924 50.048 54.1 50.232 54.356 50.328C54.628 50.408 55.052 50.448 55.628 50.448H57.38C58.372 50.448 59.124 50.32 59.636 50.064C60.164 49.792 60.548 49.368 60.788 48.792C61.028 48.2 61.204 47.336 61.316 46.2H61.868C61.82 46.632 61.796 47.208 61.796 47.928ZM76.085 49.296C76.389 49.728 76.645 50.024 76.853 50.184C77.061 50.344 77.301 50.448 77.573 50.496V51C76.853 50.952 76.205 50.928 75.629 50.928C74.669 50.928 73.541 50.952 72.245 51V50.496C72.773 50.496 73.157 50.464 73.397 50.4C73.637 50.336 73.757 50.232 73.757 50.088C73.757 49.992 73.693 49.856 73.565 49.68L69.821 44.544L66.797 48.504C66.525 48.872 66.389 49.224 66.389 49.56C66.389 49.848 66.509 50.08 66.749 50.256C66.989 50.432 67.349 50.52 67.829 50.52V51C66.917 50.952 66.013 50.928 65.117 50.928C64.941 50.928 64.645 50.944 64.229 50.976L63.509 51V50.52C63.845 50.488 64.229 50.32 64.661 50.016C65.109 49.696 65.485 49.328 65.789 48.912L69.485 44.088L65.141 38.112C64.789 37.632 64.525 37.32 64.349 37.176C64.173 37.016 63.941 36.928 63.653 36.912V36.408C64.373 36.456 65.021 36.48 65.597 36.48C66.557 36.48 67.685 36.456 68.981 36.408V36.912C68.453 36.912 68.069 36.944 67.829 37.008C67.589 37.072 67.469 37.176 67.469 37.32C67.469 37.416 67.533 37.552 67.661 37.728L71.165 42.528L73.973 38.88C74.245 38.528 74.381 38.192 74.381 37.872C74.381 37.584 74.253 37.352 73.997 37.176C73.741 36.984 73.365 36.888 72.869 36.888V36.408C73.781 36.456 74.685 36.48 75.581 36.48C76.269 36.48 76.805 36.456 77.189 36.408V36.888C76.837 36.92 76.453 37.08 76.037 37.368C75.637 37.656 75.253 38.04 74.885 38.52L71.453 42.96L76.085 49.296ZM83.0512 45.096V48.456C83.0512 49.064 83.0992 49.504 83.1952 49.776C83.2912 50.048 83.4672 50.232 83.7232 50.328C83.9952 50.424 84.4192 50.488 84.9952 50.52V51C84.2592 50.952 83.2432 50.928 81.9472 50.928C80.5712 50.928 79.5472 50.952 78.8752 51V50.52C79.4512 50.488 79.8672 50.424 80.1232 50.328C80.3952 50.232 80.5792 50.048 80.6752 49.776C80.7712 49.504 80.8192 49.064 80.8192 48.456V38.952C80.8192 38.344 80.7712 37.904 80.6752 37.632C80.5792 37.36 80.3952 37.176 80.1232 37.08C79.8672 36.984 79.4512 36.92 78.8752 36.888V36.408C79.5472 36.456 80.5232 36.48 81.8032 36.48L84.3952 36.456C84.6992 36.44 85.0432 36.432 85.4272 36.432C87.1392 36.432 88.4512 36.8 89.3632 37.536C90.2752 38.256 90.7312 39.224 90.7312 40.44C90.7312 41.208 90.5392 41.944 90.1552 42.648C89.7872 43.352 89.1472 43.936 88.2352 44.4C87.3392 44.864 86.1472 45.096 84.6592 45.096H83.0512ZM84.8272 36.888C84.3312 36.888 83.9552 36.944 83.6992 37.056C83.4592 37.168 83.2912 37.368 83.1952 37.656C83.0992 37.944 83.0512 38.376 83.0512 38.952V44.616H84.4192C85.8912 44.616 86.9072 44.264 87.4672 43.56C88.0432 42.856 88.3312 41.904 88.3312 40.704C88.3312 39.408 88.0592 38.448 87.5152 37.824C86.9712 37.2 86.0752 36.888 84.8272 36.888ZM98.4952 36.888C97.9192 36.92 97.4952 36.984 97.2232 37.08C96.9672 37.176 96.7912 37.36 96.6952 37.632C96.5992 37.904 96.5512 38.344 96.5512 38.952V48.456C96.5512 49.064 96.5992 49.504 96.6952 49.776C96.7912 50.048 96.9672 50.232 97.2232 50.328C97.4952 50.408 97.9192 50.448 98.4952 50.448H100.007C101.111 50.448 101.967 50.12 102.575 49.464C103.199 48.808 103.575 47.72 103.703 46.2H104.255C104.207 46.696 104.183 47.352 104.183 48.168C104.183 49 104.239 49.944 104.351 51C103.311 50.952 101.559 50.928 99.0952 50.928C96.1352 50.928 93.8952 50.952 92.3752 51V50.52C92.9512 50.488 93.3672 50.424 93.6232 50.328C93.8952 50.232 94.0792 50.048 94.1752 49.776C94.2712 49.504 94.3192 49.064 94.3192 48.456V38.952C94.3192 38.344 94.2712 37.904 94.1752 37.632C94.0792 37.36 93.8952 37.176 93.6232 37.08C93.3672 36.984 92.9512 36.92 92.3752 36.888V36.408C93.0472 36.456 94.0712 36.48 95.4472 36.48C96.7272 36.48 97.7432 36.456 98.4952 36.408V36.888ZM113.32 36.072C114.792 36.072 116.08 36.368 117.184 36.96C118.304 37.536 119.168 38.392 119.776 39.528C120.384 40.648 120.688 41.992 120.688 43.56C120.688 45.096 120.368 46.456 119.728 47.64C119.104 48.808 118.232 49.72 117.112 50.376C115.992 51.016 114.72 51.336 113.296 51.336C111.824 51.336 110.528 51.048 109.408 50.472C108.304 49.88 107.448 49.024 106.84 47.904C106.232 46.768 105.928 45.416 105.928 43.848C105.928 42.312 106.24 40.96 106.864 39.792C107.504 38.608 108.384 37.696 109.504 37.056C110.624 36.4 111.896 36.072 113.32 36.072ZM113.224 36.504C112.248 36.504 111.384 36.816 110.632 37.44C109.896 38.048 109.328 38.904 108.928 40.008C108.528 41.096 108.328 42.344 108.328 43.752C108.328 45.176 108.552 46.432 109 47.52C109.448 48.608 110.056 49.448 110.824 50.04C111.592 50.616 112.448 50.904 113.392 50.904C114.368 50.904 115.224 50.6 115.96 49.992C116.712 49.368 117.288 48.512 117.688 47.424C118.088 46.32 118.288 45.064 118.288 43.656C118.288 42.232 118.064 40.976 117.616 39.888C117.168 38.8 116.56 37.968 115.792 37.392C115.024 36.8 114.168 36.504 113.224 36.504ZM136.91 49.992C136.606 50.424 136.254 50.76 135.854 51C135.47 51.224 135.006 51.336 134.462 51.336C133.118 51.336 132.294 50.728 131.99 49.512L131.246 46.512C131.022 45.616 130.686 45.016 130.238 44.712C129.806 44.408 129.158 44.256 128.294 44.256H126.926V48.456C126.926 49.064 126.974 49.504 127.07 49.776C127.166 50.048 127.342 50.232 127.598 50.328C127.87 50.424 128.294 50.488 128.87 50.52V51C128.134 50.952 127.118 50.928 125.822 50.928C124.446 50.928 123.422 50.952 122.75 51V50.52C123.326 50.488 123.742 50.424 123.998 50.328C124.27 50.232 124.454 50.048 124.55 49.776C124.646 49.504 124.694 49.064 124.694 48.456V38.952C124.694 38.344 124.646 37.904 124.55 37.632C124.454 37.36 124.27 37.176 123.998 37.08C123.742 36.984 123.326 36.92 122.75 36.888V36.408C123.422 36.456 124.398 36.48 125.678 36.48L128.126 36.456C128.398 36.44 128.71 36.432 129.062 36.432C130.854 36.432 132.222 36.768 133.166 37.44C134.126 38.112 134.606 38.984 134.606 40.056C134.606 40.984 134.23 41.832 133.478 42.6C132.742 43.368 131.526 43.856 129.83 44.064C130.15 44.096 130.422 44.128 130.646 44.16C131.494 44.288 132.166 44.544 132.662 44.928C133.158 45.312 133.51 45.928 133.718 46.776L134.246 48.96C134.374 49.52 134.51 49.92 134.654 50.16C134.814 50.384 135.014 50.496 135.254 50.496C135.654 50.496 136.094 50.224 136.574 49.68L136.91 49.992ZM128.462 36.888C128.03 36.888 127.702 36.944 127.478 37.056C127.27 37.168 127.126 37.368 127.046 37.656C126.966 37.944 126.926 38.376 126.926 38.952V43.776H128.534C129.942 43.776 130.902 43.48 131.414 42.888C131.942 42.28 132.206 41.424 132.206 40.32C132.206 39.168 131.91 38.312 131.318 37.752C130.742 37.176 129.79 36.888 128.462 36.888ZM149.535 48.168C149.535 49 149.591 49.944 149.703 51C148.663 50.952 146.911 50.928 144.447 50.928C141.487 50.928 139.247 50.952 137.727 51V50.52C138.303 50.488 138.719 50.424 138.975 50.328C139.247 50.232 139.431 50.048 139.527 49.776C139.623 49.504 139.671 49.064 139.671 48.456V38.952C139.671 38.344 139.623 37.904 139.527 37.632C139.431 37.36 139.247 37.176 138.975 37.08C138.719 36.984 138.303 36.92 137.727 36.888V36.408C139.247 36.456 141.487 36.48 144.447 36.48C146.687 36.48 148.279 36.456 149.223 36.408C149.111 37.368 149.055 38.232 149.055 39C149.055 39.624 149.079 40.12 149.127 40.488H148.575C148.463 39.176 148.183 38.264 147.735 37.752C147.303 37.224 146.591 36.96 145.599 36.96H143.847C143.271 36.96 142.847 37.008 142.575 37.104C142.319 37.184 142.143 37.36 142.047 37.632C141.951 37.904 141.903 38.344 141.903 38.952V43.416H143.895C144.407 43.416 144.799 43.288 145.071 43.032C145.343 42.76 145.527 42.472 145.623 42.168C145.719 41.848 145.807 41.448 145.887 40.968H146.439C146.391 41.512 146.367 42.104 146.367 42.744V43.656C146.367 44.28 146.415 45.176 146.511 46.344H145.959C145.863 45.576 145.679 44.976 145.407 44.544C145.135 44.112 144.631 43.896 143.895 43.896H141.903V48.456C141.903 49.064 141.951 49.504 142.047 49.776C142.143 50.048 142.319 50.232 142.575 50.328C142.847 50.408 143.271 50.448 143.847 50.448H145.599C146.399 50.448 147.031 50.32 147.495 50.064C147.959 49.808 148.311 49.4 148.551 48.84C148.791 48.264 148.959 47.464 149.055 46.44H149.607C149.559 46.872 149.535 47.448 149.535 48.168ZM162.153 45.096V48.456C162.153 49.064 162.201 49.504 162.297 49.776C162.393 50.048 162.569 50.232 162.825 50.328C163.097 50.424 163.521 50.488 164.097 50.52V51C163.361 50.952 162.345 50.928 161.049 50.928C159.673 50.928 158.649 50.952 157.977 51V50.52C158.553 50.488 158.969 50.424 159.225 50.328C159.497 50.232 159.681 50.048 159.777 49.776C159.873 49.504 159.921 49.064 159.921 48.456V38.952C159.921 38.344 159.873 37.904 159.777 37.632C159.681 37.36 159.497 37.176 159.225 37.08C158.969 36.984 158.553 36.92 157.977 36.888V36.408C158.649 36.456 159.625 36.48 160.905 36.48L163.497 36.456C163.801 36.44 164.145 36.432 164.529 36.432C166.241 36.432 167.553 36.8 168.465 37.536C169.377 38.256 169.833 39.224 169.833 40.44C169.833 41.208 169.641 41.944 169.257 42.648C168.889 43.352 168.249 43.936 167.337 44.4C166.441 44.864 165.249 45.096 163.761 45.096H162.153ZM163.929 36.888C163.433 36.888 163.057 36.944 162.801 37.056C162.561 37.168 162.393 37.368 162.297 37.656C162.201 37.944 162.153 38.376 162.153 38.952V44.616H163.521C164.993 44.616 166.009 44.264 166.569 43.56C167.145 42.856 167.433 41.904 167.433 40.704C167.433 39.408 167.161 38.448 166.617 37.824C166.073 37.2 165.177 36.888 163.929 36.888ZM185.637 49.992C185.333 50.424 184.981 50.76 184.581 51C184.197 51.224 183.733 51.336 183.189 51.336C181.845 51.336 181.021 50.728 180.717 49.512L179.973 46.512C179.749 45.616 179.413 45.016 178.965 44.712C178.533 44.408 177.885 44.256 177.021 44.256H175.653V48.456C175.653 49.064 175.701 49.504 175.797 49.776C175.893 50.048 176.069 50.232 176.325 50.328C176.597 50.424 177.021 50.488 177.597 50.52V51C176.861 50.952 175.845 50.928 174.549 50.928C173.173 50.928 172.149 50.952 171.477 51V50.52C172.053 50.488 172.469 50.424 172.725 50.328C172.997 50.232 173.181 50.048 173.277 49.776C173.373 49.504 173.421 49.064 173.421 48.456V38.952C173.421 38.344 173.373 37.904 173.277 37.632C173.181 37.36 172.997 37.176 172.725 37.08C172.469 36.984 172.053 36.92 171.477 36.888V36.408C172.149 36.456 173.125 36.48 174.405 36.48L176.853 36.456C177.125 36.44 177.437 36.432 177.789 36.432C179.581 36.432 180.949 36.768 181.893 37.44C182.853 38.112 183.333 38.984 183.333 40.056C183.333 40.984 182.957 41.832 182.205 42.6C181.469 43.368 180.253 43.856 178.557 44.064C178.877 44.096 179.149 44.128 179.373 44.16C180.221 44.288 180.893 44.544 181.389 44.928C181.885 45.312 182.237 45.928 182.445 46.776L182.973 48.96C183.101 49.52 183.237 49.92 183.381 50.16C183.541 50.384 183.741 50.496 183.981 50.496C184.381 50.496 184.821 50.224 185.301 49.68L185.637 49.992ZM177.189 36.888C176.757 36.888 176.429 36.944 176.205 37.056C175.997 37.168 175.853 37.368 175.773 37.656C175.693 37.944 175.653 38.376 175.653 38.952V43.776H177.261C178.669 43.776 179.629 43.48 180.141 42.888C180.669 42.28 180.933 41.424 180.933 40.32C180.933 39.168 180.637 38.312 180.045 37.752C179.469 37.176 178.517 36.888 177.189 36.888ZM194.016 36.072C195.488 36.072 196.776 36.368 197.88 36.96C199 37.536 199.864 38.392 200.472 39.528C201.08 40.648 201.384 41.992 201.384 43.56C201.384 45.096 201.064 46.456 200.424 47.64C199.8 48.808 198.928 49.72 197.808 50.376C196.688 51.016 195.416 51.336 193.992 51.336C192.52 51.336 191.224 51.048 190.104 50.472C189 49.88 188.144 49.024 187.536 47.904C186.928 46.768 186.624 45.416 186.624 43.848C186.624 42.312 186.936 40.96 187.56 39.792C188.2 38.608 189.08 37.696 190.2 37.056C191.32 36.4 192.592 36.072 194.016 36.072ZM193.92 36.504C192.944 36.504 192.08 36.816 191.328 37.44C190.592 38.048 190.024 38.904 189.624 40.008C189.224 41.096 189.024 42.344 189.024 43.752C189.024 45.176 189.248 46.432 189.696 47.52C190.144 48.608 190.752 49.448 191.52 50.04C192.288 50.616 193.144 50.904 194.088 50.904C195.064 50.904 195.92 50.6 196.656 49.992C197.408 49.368 197.984 48.512 198.384 47.424C198.784 46.32 198.984 45.064 198.984 43.656C198.984 42.232 198.76 40.976 198.312 39.888C197.864 38.8 197.256 37.968 196.488 37.392C195.72 36.8 194.864 36.504 193.92 36.504ZM209.998 36.408C212.494 36.408 214.366 37.016 215.614 38.232C216.878 39.432 217.51 41.192 217.51 43.512C217.51 45.016 217.206 46.336 216.598 47.472C215.99 48.592 215.102 49.464 213.934 50.088C212.782 50.696 211.398 51 209.782 51L208.39 50.976C207.494 50.944 206.838 50.928 206.422 50.928C205.11 50.928 204.118 50.952 203.446 51V50.52C204.022 50.488 204.438 50.424 204.694 50.328C204.966 50.232 205.15 50.048 205.246 49.776C205.342 49.504 205.39 49.064 205.39 48.456V38.952C205.39 38.344 205.342 37.904 205.246 37.632C205.15 37.36 204.966 37.176 204.694 37.08C204.438 36.984 204.022 36.92 203.446 36.888V36.408C204.006 36.456 204.782 36.48 205.774 36.48L207.814 36.456C208.902 36.424 209.63 36.408 209.998 36.408ZM209.398 36.84C208.902 36.84 208.526 36.896 208.27 37.008C208.03 37.12 207.862 37.32 207.766 37.608C207.67 37.896 207.622 38.328 207.622 38.904V48.504C207.622 49.08 207.67 49.512 207.766 49.8C207.862 50.088 208.03 50.288 208.27 50.4C208.526 50.512 208.91 50.568 209.422 50.568C210.878 50.568 212.022 50.312 212.854 49.8C213.686 49.272 214.27 48.504 214.606 47.496C214.942 46.488 215.109 45.192 215.109 43.608C215.109 41.272 214.678 39.56 213.814 38.472C212.95 37.384 211.478 36.84 209.398 36.84ZM233.872 36.888C233.312 36.92 232.896 37.008 232.624 37.152C232.352 37.28 232.168 37.504 232.072 37.824C231.976 38.128 231.928 38.584 231.928 39.192V44.496C231.928 45.6 231.848 46.544 231.688 47.328C231.544 48.096 231.296 48.768 230.944 49.344C230.56 49.952 230 50.44 229.264 50.808C228.544 51.16 227.72 51.336 226.792 51.336C225.144 51.336 223.88 50.984 223 50.28C222.296 49.656 221.824 48.944 221.584 48.144C221.344 47.344 221.224 46.152 221.224 44.568V38.952C221.224 38.344 221.176 37.904 221.08 37.632C220.984 37.36 220.8 37.176 220.528 37.08C220.272 36.984 219.856 36.92 219.28 36.888V36.408C219.952 36.456 220.976 36.48 222.352 36.48C223.632 36.48 224.648 36.456 225.4 36.408V36.888C224.824 36.92 224.4 36.984 224.128 37.08C223.872 37.176 223.696 37.36 223.6 37.632C223.504 37.904 223.456 38.344 223.456 38.952V44.976C223.456 46.16 223.536 47.144 223.696 47.928C223.856 48.696 224.192 49.32 224.704 49.8C225.232 50.264 226 50.496 227.008 50.496C228.608 50.496 229.736 49.992 230.392 48.984C231.048 47.976 231.376 46.568 231.376 44.76V39.192C231.376 38.328 231.216 37.736 230.896 37.416C230.592 37.096 230.024 36.92 229.192 36.888V36.408C229.768 36.456 230.584 36.48 231.64 36.48C232.6 36.48 233.344 36.456 233.872 36.408V36.888ZM242.784 36.072C243.568 36.072 244.232 36.208 244.776 36.48C245.32 36.736 245.888 37.12 246.48 37.632C246.656 37.776 246.808 37.848 246.936 37.848C247.256 37.848 247.464 37.368 247.56 36.408H248.112C248.048 37.368 248.016 39.048 248.016 41.448H247.464C247.304 40.616 247.144 40 246.984 39.6C246.824 39.2 246.584 38.792 246.264 38.376C245.816 37.784 245.28 37.336 244.656 37.032C244.032 36.712 243.376 36.552 242.688 36.552C241.744 36.552 240.92 36.84 240.216 37.416C239.528 37.992 238.992 38.824 238.608 39.912C238.224 41 238.032 42.28 238.032 43.752C238.032 45.256 238.24 46.544 238.656 47.616C239.088 48.672 239.664 49.48 240.384 50.04C241.12 50.584 241.944 50.856 242.856 50.856C243.56 50.856 244.232 50.704 244.872 50.4C245.528 50.08 246.08 49.624 246.528 49.032C246.832 48.616 247.056 48.176 247.2 47.712C247.36 47.248 247.504 46.584 247.632 45.72H248.184C248.184 48.232 248.216 49.992 248.28 51H247.728C247.68 50.504 247.608 50.144 247.512 49.92C247.416 49.68 247.288 49.56 247.128 49.56C247 49.56 246.84 49.632 246.648 49.776C246.04 50.288 245.448 50.68 244.872 50.952C244.296 51.208 243.592 51.336 242.76 51.336C241.336 51.336 240.088 51.048 239.016 50.472C237.944 49.88 237.112 49.024 236.52 47.904C235.928 46.768 235.632 45.416 235.632 43.848C235.632 42.312 235.936 40.96 236.544 39.792C237.152 38.608 238 37.696 239.088 37.056C240.176 36.4 241.408 36.072 242.784 36.072ZM264.086 36.408C263.974 37.464 263.918 38.408 263.918 39.24C263.918 40.072 263.942 40.728 263.99 41.208H263.438C263.342 40.088 263.19 39.232 262.982 38.64C262.774 38.048 262.438 37.624 261.974 37.368C261.51 37.096 260.846 36.96 259.982 36.96H258.446V48.216C258.446 48.888 258.51 49.376 258.638 49.68C258.766 49.984 258.99 50.192 259.31 50.304C259.63 50.416 260.15 50.488 260.87 50.52V51C260.038 50.952 258.862 50.928 257.342 50.928C255.742 50.928 254.558 50.952 253.79 51V50.52C254.51 50.488 255.03 50.416 255.35 50.304C255.67 50.192 255.894 49.984 256.022 49.68C256.15 49.376 256.214 48.888 256.214 48.216V36.96H254.678C253.814 36.96 253.15 37.096 252.686 37.368C252.222 37.624 251.886 38.048 251.678 38.64C251.47 39.232 251.318 40.088 251.222 41.208H250.67C250.718 40.696 250.742 40.04 250.742 39.24C250.742 38.408 250.686 37.464 250.574 36.408C251.902 36.456 254.158 36.48 257.342 36.48C260.51 36.48 262.758 36.456 264.086 36.408Z" fill="white"/>
<g clip-path="url(#clip0_3202_29)">
<path d="M290 32.5L307 49.5" stroke="white" stroke-linecap="round" stroke-linejoin="round"/>
<path d="M293.188 49.5H307V35.6875" stroke="white" stroke-linecap="round" stroke-linejoin="round"/>
</g>
<defs>
<clipPath id="clip0_3202_29">
<rect width="34" height="34" fill="white" transform="translate(281.5 24)"/>
</clipPath>
</defs>
</svg>
