<svg width="280" height="82" viewBox="0 0 280 82" fill="none" xmlns="http://www.w3.org/2000/svg">
<path d="M0 0H248C265.673 0 280 14.3269 280 32V82H32C14.3269 82 0 67.6731 0 50V0Z" fill="#6D1600"/>
<path d="M63.84 49.8C63.472 50.344 63.104 50.736 62.736 50.976C62.368 51.216 61.88 51.336 61.272 51.336C60.616 51.336 60.072 51.144 59.64 50.76C59.224 50.376 58.912 49.704 58.704 48.744L58.176 46.344C57.984 45.512 57.8 44.872 57.624 44.424C57.464 43.976 57.216 43.616 56.88 43.344C56.544 43.072 56.072 42.936 55.464 42.936H53.184V48.456C53.184 49.064 53.232 49.504 53.328 49.776C53.424 50.048 53.6 50.232 53.856 50.328C54.128 50.424 54.552 50.488 55.128 50.52V51C54.392 50.952 53.376 50.928 52.08 50.928C50.704 50.928 49.68 50.952 49.008 51V50.52C49.584 50.488 50 50.424 50.256 50.328C50.528 50.232 50.712 50.048 50.808 49.776C50.904 49.504 50.952 49.064 50.952 48.456V36.552C50.952 35.944 50.904 35.504 50.808 35.232C50.712 34.96 50.528 34.776 50.256 34.68C50 34.584 49.584 34.52 49.008 34.488V34.008C49.68 34.056 50.656 34.08 51.936 34.08L54.528 34.056C54.832 34.04 55.176 34.032 55.56 34.032C57.416 34.032 58.84 34.424 59.832 35.208C60.84 35.976 61.344 36.976 61.344 38.208C61.344 38.832 61.192 39.464 60.888 40.104C60.6 40.728 60.104 41.296 59.4 41.808C58.712 42.304 57.808 42.64 56.688 42.816L56.976 42.864C58.032 43.04 58.8 43.36 59.28 43.824C59.76 44.288 60.112 45.024 60.336 46.032L60.936 48.48C61.096 49.216 61.264 49.728 61.44 50.016C61.616 50.304 61.856 50.448 62.16 50.448C62.432 50.448 62.656 50.376 62.832 50.232C63.024 50.088 63.24 49.856 63.48 49.536L63.84 49.8ZM54.96 34.488C54.464 34.488 54.088 34.544 53.832 34.656C53.592 34.768 53.424 34.968 53.328 35.256C53.232 35.544 53.184 35.976 53.184 36.552V42.456H54.792C56.376 42.456 57.464 42.104 58.056 41.4C58.648 40.696 58.944 39.72 58.944 38.472C58.944 37.16 58.632 36.168 58.008 35.496C57.384 34.824 56.368 34.488 54.96 34.488ZM76.3785 48.168C76.3785 49 76.4345 49.944 76.5465 51C75.5065 50.952 73.7545 50.928 71.2905 50.928C68.3305 50.928 66.0905 50.952 64.5705 51V50.52C65.1465 50.488 65.5625 50.424 65.8185 50.328C66.0905 50.232 66.2745 50.048 66.3705 49.776C66.4665 49.504 66.5145 49.064 66.5145 48.456V38.952C66.5145 38.344 66.4665 37.904 66.3705 37.632C66.2745 37.36 66.0905 37.176 65.8185 37.08C65.5625 36.984 65.1465 36.92 64.5705 36.888V36.408C66.0905 36.456 68.3305 36.48 71.2905 36.48C73.5305 36.48 75.1225 36.456 76.0665 36.408C75.9545 37.368 75.8985 38.232 75.8985 39C75.8985 39.624 75.9225 40.12 75.9705 40.488H75.4185C75.3065 39.176 75.0265 38.264 74.5785 37.752C74.1465 37.224 73.4345 36.96 72.4425 36.96H70.6905C70.1145 36.96 69.6905 37.008 69.4185 37.104C69.1625 37.184 68.9865 37.36 68.8905 37.632C68.7945 37.904 68.7465 38.344 68.7465 38.952V43.416H70.7385C71.2505 43.416 71.6425 43.288 71.9145 43.032C72.1865 42.76 72.3705 42.472 72.4665 42.168C72.5625 41.848 72.6505 41.448 72.7305 40.968H73.2825C73.2345 41.512 73.2105 42.104 73.2105 42.744V43.656C73.2105 44.28 73.2585 45.176 73.3545 46.344H72.8025C72.7065 45.576 72.5225 44.976 72.2505 44.544C71.9785 44.112 71.4745 43.896 70.7385 43.896H68.7465V48.456C68.7465 49.064 68.7945 49.504 68.8905 49.776C68.9865 50.048 69.1625 50.232 69.4185 50.328C69.6905 50.408 70.1145 50.448 70.6905 50.448H72.4425C73.2425 50.448 73.8745 50.32 74.3385 50.064C74.8025 49.808 75.1545 49.4 75.3945 48.84C75.6345 48.264 75.8025 47.464 75.8985 46.44H76.4505C76.4025 46.872 76.3785 47.448 76.3785 48.168ZM91.0359 48.984C91.4679 49.976 92.0199 50.488 92.6919 50.52V51C92.0519 50.952 91.1959 50.928 90.1239 50.928C88.7479 50.928 87.7239 50.952 87.0519 51V50.52C87.6439 50.488 88.0759 50.408 88.3479 50.28C88.6359 50.152 88.7799 49.936 88.7799 49.632C88.7799 49.376 88.6679 49 88.4439 48.504L87.2199 45.768H81.3879L80.5719 47.568C80.2999 48.192 80.1639 48.704 80.1639 49.104C80.1639 49.52 80.3079 49.848 80.5959 50.088C80.8999 50.312 81.3799 50.456 82.0359 50.52V51C81.5559 50.952 80.8279 50.928 79.8519 50.928C78.8759 50.928 78.1799 50.952 77.7639 51V50.52C78.1959 50.408 78.5639 50.168 78.8679 49.8C79.1719 49.416 79.4599 48.912 79.7319 48.288L85.0359 36.288H85.4199L91.0359 48.984ZM87.0279 45.288L84.3159 39.192L81.5799 45.288H87.0279ZM100.185 36.408C102.681 36.408 104.553 37.016 105.801 38.232C107.065 39.432 107.697 41.192 107.697 43.512C107.697 45.016 107.393 46.336 106.785 47.472C106.177 48.592 105.289 49.464 104.121 50.088C102.969 50.696 101.585 51 99.969 51L98.577 50.976C97.681 50.944 97.025 50.928 96.609 50.928C95.297 50.928 94.305 50.952 93.633 51V50.52C94.209 50.488 94.625 50.424 94.881 50.328C95.153 50.232 95.337 50.048 95.433 49.776C95.529 49.504 95.577 49.064 95.577 48.456V38.952C95.577 38.344 95.529 37.904 95.433 37.632C95.337 37.36 95.153 37.176 94.881 37.08C94.625 36.984 94.209 36.92 93.633 36.888V36.408C94.193 36.456 94.969 36.48 95.961 36.48L98.001 36.456C99.089 36.424 99.817 36.408 100.185 36.408ZM99.585 36.84C99.089 36.84 98.713 36.896 98.457 37.008C98.217 37.12 98.049 37.32 97.953 37.608C97.857 37.896 97.809 38.328 97.809 38.904V48.504C97.809 49.08 97.857 49.512 97.953 49.8C98.049 50.088 98.217 50.288 98.457 50.4C98.713 50.512 99.097 50.568 99.609 50.568C101.065 50.568 102.209 50.312 103.041 49.8C103.873 49.272 104.457 48.504 104.793 47.496C105.129 46.488 105.297 45.192 105.297 43.608C105.297 41.272 104.865 39.56 104.001 38.472C103.137 37.384 101.665 36.84 99.585 36.84ZM134.88 34.488C134.304 34.52 133.88 34.584 133.608 34.68C133.352 34.776 133.176 34.96 133.08 35.232C132.984 35.504 132.936 35.944 132.936 36.552V48.456C132.936 49.064 132.984 49.504 133.08 49.776C133.176 50.048 133.352 50.232 133.608 50.328C133.88 50.424 134.304 50.488 134.88 50.52V51C134.144 50.952 133.128 50.928 131.832 50.928C130.456 50.928 129.432 50.952 128.76 51V50.52C129.336 50.488 129.752 50.424 130.008 50.328C130.28 50.232 130.464 50.048 130.56 49.776C130.656 49.504 130.704 49.064 130.704 48.456V35.592L124.92 51.12H124.536L118.488 35.544V48.216C118.488 48.84 118.536 49.304 118.632 49.608C118.744 49.912 118.952 50.136 119.256 50.28C119.56 50.408 120.032 50.488 120.672 50.52V51C120.096 50.952 119.28 50.928 118.224 50.928C117.264 50.928 116.52 50.952 115.992 51V50.52C116.552 50.488 116.968 50.408 117.24 50.28C117.512 50.136 117.696 49.912 117.792 49.608C117.888 49.288 117.936 48.824 117.936 48.216V36.552C117.936 35.944 117.888 35.504 117.792 35.232C117.696 34.96 117.512 34.776 117.24 34.68C116.984 34.584 116.568 34.52 115.992 34.488V34.008C116.52 34.056 117.264 34.08 118.224 34.08C119.056 34.08 119.736 34.056 120.264 34.008L125.544 47.904L130.704 34.08H131.832C133.128 34.08 134.144 34.056 134.88 34.008V34.488ZM144.297 36.072C145.769 36.072 147.057 36.368 148.161 36.96C149.281 37.536 150.145 38.392 150.753 39.528C151.361 40.648 151.665 41.992 151.665 43.56C151.665 45.096 151.345 46.456 150.705 47.64C150.081 48.808 149.209 49.72 148.089 50.376C146.969 51.016 145.697 51.336 144.273 51.336C142.801 51.336 141.505 51.048 140.385 50.472C139.281 49.88 138.425 49.024 137.817 47.904C137.209 46.768 136.905 45.416 136.905 43.848C136.905 42.312 137.217 40.96 137.841 39.792C138.481 38.608 139.361 37.696 140.481 37.056C141.601 36.4 142.873 36.072 144.297 36.072ZM144.201 36.504C143.225 36.504 142.361 36.816 141.609 37.44C140.873 38.048 140.305 38.904 139.905 40.008C139.505 41.096 139.305 42.344 139.305 43.752C139.305 45.176 139.529 46.432 139.977 47.52C140.425 48.608 141.033 49.448 141.801 50.04C142.569 50.616 143.425 50.904 144.369 50.904C145.345 50.904 146.201 50.6 146.937 49.992C147.689 49.368 148.265 48.512 148.665 47.424C149.065 46.32 149.265 45.064 149.265 43.656C149.265 42.232 149.041 40.976 148.593 39.888C148.145 38.8 147.537 37.968 146.769 37.392C146.001 36.8 145.145 36.504 144.201 36.504ZM167.887 49.992C167.583 50.424 167.231 50.76 166.831 51C166.447 51.224 165.983 51.336 165.439 51.336C164.095 51.336 163.271 50.728 162.967 49.512L162.223 46.512C161.999 45.616 161.663 45.016 161.215 44.712C160.783 44.408 160.135 44.256 159.271 44.256H157.903V48.456C157.903 49.064 157.951 49.504 158.047 49.776C158.143 50.048 158.319 50.232 158.575 50.328C158.847 50.424 159.271 50.488 159.847 50.52V51C159.111 50.952 158.095 50.928 156.799 50.928C155.423 50.928 154.399 50.952 153.727 51V50.52C154.303 50.488 154.719 50.424 154.975 50.328C155.247 50.232 155.431 50.048 155.527 49.776C155.623 49.504 155.671 49.064 155.671 48.456V38.952C155.671 38.344 155.623 37.904 155.527 37.632C155.431 37.36 155.247 37.176 154.975 37.08C154.719 36.984 154.303 36.92 153.727 36.888V36.408C154.399 36.456 155.375 36.48 156.655 36.48L159.103 36.456C159.375 36.44 159.687 36.432 160.039 36.432C161.831 36.432 163.199 36.768 164.143 37.44C165.103 38.112 165.583 38.984 165.583 40.056C165.583 40.984 165.207 41.832 164.455 42.6C163.719 43.368 162.503 43.856 160.807 44.064C161.127 44.096 161.399 44.128 161.623 44.16C162.471 44.288 163.143 44.544 163.639 44.928C164.135 45.312 164.487 45.928 164.695 46.776L165.223 48.96C165.351 49.52 165.487 49.92 165.631 50.16C165.791 50.384 165.991 50.496 166.231 50.496C166.631 50.496 167.071 50.224 167.551 49.68L167.887 49.992ZM159.439 36.888C159.007 36.888 158.679 36.944 158.455 37.056C158.247 37.168 158.103 37.368 158.023 37.656C157.943 37.944 157.903 38.376 157.903 38.952V43.776H159.511C160.919 43.776 161.879 43.48 162.391 42.888C162.919 42.28 163.183 41.424 163.183 40.32C163.183 39.168 162.887 38.312 162.295 37.752C161.719 37.176 160.767 36.888 159.439 36.888ZM180.511 48.168C180.511 49 180.567 49.944 180.679 51C179.639 50.952 177.887 50.928 175.423 50.928C172.463 50.928 170.223 50.952 168.703 51V50.52C169.279 50.488 169.695 50.424 169.951 50.328C170.223 50.232 170.407 50.048 170.503 49.776C170.599 49.504 170.647 49.064 170.647 48.456V38.952C170.647 38.344 170.599 37.904 170.503 37.632C170.407 37.36 170.223 37.176 169.951 37.08C169.695 36.984 169.279 36.92 168.703 36.888V36.408C170.223 36.456 172.463 36.48 175.423 36.48C177.663 36.48 179.255 36.456 180.199 36.408C180.087 37.368 180.031 38.232 180.031 39C180.031 39.624 180.055 40.12 180.103 40.488H179.551C179.439 39.176 179.159 38.264 178.711 37.752C178.279 37.224 177.567 36.96 176.575 36.96H174.823C174.247 36.96 173.823 37.008 173.551 37.104C173.295 37.184 173.119 37.36 173.023 37.632C172.927 37.904 172.879 38.344 172.879 38.952V43.416H174.871C175.383 43.416 175.775 43.288 176.047 43.032C176.319 42.76 176.503 42.472 176.599 42.168C176.695 41.848 176.783 41.448 176.863 40.968H177.415C177.367 41.512 177.343 42.104 177.343 42.744V43.656C177.343 44.28 177.391 45.176 177.487 46.344H176.935C176.839 45.576 176.655 44.976 176.383 44.544C176.111 44.112 175.607 43.896 174.871 43.896H172.879V48.456C172.879 49.064 172.927 49.504 173.023 49.776C173.119 50.048 173.295 50.232 173.551 50.328C173.823 50.408 174.247 50.448 174.823 50.448H176.575C177.375 50.448 178.007 50.32 178.471 50.064C178.935 49.808 179.287 49.4 179.527 48.84C179.767 48.264 179.935 47.464 180.031 46.44H180.583C180.535 46.872 180.511 47.448 180.511 48.168Z" fill="white"/>
<g clip-path="url(#clip0_3219_347)">
<path d="M206.5 32.5L223.5 49.5" stroke="white" stroke-linecap="round" stroke-linejoin="round"/>
<path d="M209.688 49.5H223.5V35.6875" stroke="white" stroke-linecap="round" stroke-linejoin="round"/>
</g>
<defs>
<clipPath id="clip0_3219_347">
<rect width="34" height="34" fill="white" transform="translate(198 24)"/>
</clipPath>
</defs>
</svg>
